<?xml version="1.0" encoding="utf-8"?>
<!-- Generator: Adobe Illustrator 17.0.0, SVG Export Plug-In . SVG Version: 6.00 Build 0)  -->
<!DOCTYPE svg PUBLIC "-//W3C//DTD SVG 1.1//EN" "http://www.w3.org/Graphics/SVG/1.1/DTD/svg11.dtd">
<svg version="1.1" id="Слой_1" xmlns="http://www.w3.org/2000/svg" xmlns:xlink="http://www.w3.org/1999/xlink" x="0px" y="0px"
	 width="243px" height="57px" viewBox="0 0 243 57" enable-background="new 0 0 243 57" xml:space="preserve">
<rect x="-783.684" y="-785.22" display="none" fill="#FDC400" width="600" height="300"/>
<g display="none">
	<path display="inline" fill="#201D1D" d="M-581.97-563.288h8.03v-28.828h-8.03V-563.288z M-599.515-592.116h-7.99v28.828h21.951
		v-7.001h-13.961V-592.116z M-548.612-578.361c2.554-1.112,4.448-3.089,4.448-6.425c0-2.059-0.701-3.583-1.853-4.735
		c-1.69-1.689-4.242-2.595-7.866-2.595h-14.785v28.828h14.867c6.878,0,10.913-3.007,10.913-7.948
		C-542.888-575.231-545.111-577.208-548.612-578.361z M-560.884-585.691h5.189c2.389,0,3.623,0.905,3.623,2.471
		c0,1.771-1.359,2.595-3.789,2.595h-5.023V-585.691z M-554.707-569.713h-6.178v-5.313h6.095c2.677,0,3.913,1.029,3.913,2.595
		C-550.876-570.66-552.277-569.713-554.707-569.713z M-400.636-576.879l-11.859-15.237h-7.455v28.828h7.908v-15.814l12.313,15.814
		h7.002v-28.828h-7.908V-576.879z M-442.726-592.322l-12.272,29.034h8.4l2.061-5.147h11.119l2.1,5.147h8.566l-12.273-29.034
		H-442.726z M-442.191-574.654l3.254-8.196l3.213,8.196H-442.191z M-513.646-582.191c0-2.924-0.865-5.148-2.554-6.836
		c-1.936-1.936-4.983-3.089-9.39-3.089h-13.632v28.828h7.989v-8.731h3.501l5.808,8.731h9.225l-6.878-10.049
		C-515.994-574.86-513.646-577.785-513.646-582.191z M-525.96-578.279h-5.271v-6.918h5.23c2.678,0,4.324,1.152,4.324,3.418
		C-521.677-579.596-523.242-578.279-525.96-578.279z M-371.148-579.72l10.914-12.396h-9.473l-9.924,11.696v-11.696h-7.99v28.828
		h7.99v-7.454l2.924-3.254l7.248,10.708h9.596L-371.148-579.72z M-462.083-578.361c2.555-1.112,4.447-3.089,4.447-6.425
		c0-2.059-0.699-3.583-1.852-4.735c-1.689-1.689-4.242-2.595-7.867-2.595h-14.785v28.828h14.867c6.879,0,10.914-3.007,10.914-7.948
		C-456.359-575.231-458.583-577.208-462.083-578.361z M-474.356-585.691h5.189c2.389,0,3.625,0.905,3.625,2.471
		c0,1.771-1.359,2.595-3.789,2.595h-5.024V-585.691z M-468.179-569.713h-6.177v-5.313h6.095c2.678,0,3.912,1.029,3.912,2.595
		C-464.349-570.66-465.748-569.713-468.179-569.713z M-501.703-574.654h13.838v-6.302h-13.838v-4.365h15.279v-6.795h-23.186v28.828
		h23.393v-6.795h-15.486V-574.654z"/>
	<path display="inline" fill="#201D1D" d="M-472.513-633.171l-2.752-8.471l-22.465,16.318l2.027-6.229l-25.224-18.326l-2.752,8.471
		l18.015,13.088l-2.752,8.472l8.781,6.38l7.205-5.235L-472.513-633.171z M-490.203-648.498l8.582-26.406l2.023,6.232h31.176
		l-2.752-8.471h-22.267l-2.753-8.471h-10.854l-10.362,31.882L-490.203-648.498z M-492.429-634.408l7.205-5.235l-22.463-16.322
		l6.552,0.002l9.634-29.65h-8.906l-6.881,21.177l-8.907,0.001l-3.354,10.322l7.205,5.236L-492.429-634.408z M-465.181-651.731
		l-8.906,0.001l8.578,26.407l-5.299-3.853l-25.223,18.325l7.205,5.236l18.014-13.089l7.207,5.235l8.781-6.38l-2.752-8.472
		L-465.181-651.731z M-443.69-654.114l-3.354-10.322l-8.907-0.001l-24.616-0.002l-2.752,8.472l27.767,0.002l-5.302,3.849
		l9.635,29.651l7.205-5.236l-6.881-21.176L-443.69-654.114z"/>
</g>
<rect x="-783.684" y="-477.22" display="none" fill="#201D1D" width="600" height="300"/>
<g display="none">
	<path display="inline" fill="#FDC400" d="M-369.193-255.788l-7.458-11.018l-3.479,3.872v7.146h-6.99v-27.828h6.99v12.559
		l10.655-12.559h8.135l-10.441,11.857l10.968,15.971H-369.193z M-399.486-255.788l-13.057-16.771v16.771h-6.908v-27.828h6.711
		l12.604,16.193v-16.193h6.908v27.828H-399.486z M-430.982-255.788l-2.1-5.147h-11.794l-2.061,5.147h-7.308l11.849-28.034h7.039
		l11.851,28.034H-430.982z M-442.927-266.154h7.937l-3.943-10.059L-442.927-266.154z M-481.64-255.788v-27.828h14.285
		c3.408,0,5.866,0.801,7.514,2.448c1.147,1.148,1.705,2.581,1.705,4.382c0,2.761-1.396,4.768-4.147,5.967l-1.202,0.522l1.245,0.41
		c3.722,1.227,5.381,3.277,5.381,6.65c0,4.664-3.894,7.448-10.414,7.448H-481.64z M-474.856-261.213h6.677
		c2.752,0,4.33-1.173,4.33-3.218c0-0.931-0.43-3.095-4.412-3.095h-6.595V-261.213z M-474.856-272.126h5.524
		c3.545,0,4.289-1.683,4.289-3.095c0-0.894-0.402-2.971-4.125-2.971h-5.689V-272.126z M-509.109-255.788v-27.828h22.186v5.795
		h-15.279v5.365h13.838v5.302h-13.838v5.571h15.486v5.795H-509.109z M-521.655-255.788l-5.808-8.73h-4.269v8.73h-6.989v-27.828
		h13.132c4.044,0,7.083,0.99,9.036,2.942c1.62,1.62,2.407,3.74,2.407,6.482c0,4.961-3.06,7.303-5.627,8.395l-0.561,0.238
		l6.687,9.771H-521.655z M-531.732-269.779h5.771c2.95,0,4.783-1.532,4.783-4c0-2.49-1.758-3.918-4.824-3.918h-5.73V-269.779z
		 M-568.168-255.788v-27.828h14.285c3.408,0,5.865,0.801,7.513,2.448c1.148,1.149,1.707,2.582,1.707,4.382
		c0,2.76-1.395,4.767-4.148,5.967l-1.201,0.522l1.245,0.41c3.721,1.226,5.38,3.277,5.38,6.65c0,4.664-3.893,7.448-10.413,7.448
		H-568.168z M-561.384-261.213h6.678c2.752,0,4.33-1.173,4.33-3.218c0-0.931-0.43-3.095-4.413-3.095h-6.595V-261.213z
		 M-561.384-272.126h5.523c3.545,0,4.289-1.683,4.289-3.095c0-0.894-0.402-2.971-4.123-2.971h-5.689V-272.126z M-581.47-255.788
		v-27.828h7.03v27.828H-581.47z M-607.005-255.788v-27.828h6.99v21.827h13.961v6.001H-607.005z"/>
	<path display="inline" fill="#FDC400" d="M-495.18-302.85l24.372-17.707l6.25,4.544l-8.841-27.217l7.854-0.001l10.133,31.192
		l-8.193,5.953l-7.207-5.235l-18.014,13.089L-495.18-302.85z M-507.828-312.039l2.752-8.472l-18.015-13.088l2.427-7.471
		l24.373,17.708l-2.392,7.348l23.154-16.819l2.427,7.471l-26.533,19.276L-507.828-312.039z M-460.267-343.926l6.254-4.54
		l-28.618-0.002l2.427-7.472l32.797,0.003l3.13,9.631l-7.206,5.236l6.881,21.176l-6.355,4.618L-460.267-343.926z M-518.961-346.305
		l3.129-9.631l8.907-0.001l6.881-21.177h7.855l-9.309,28.65l-7.728-0.002l23.152,16.822l-6.354,4.617L-518.961-346.305z
		 M-496.821-345.924l10.138-31.19h10.127l2.753,8.471h22.267l2.427,7.471h-30.124l-2.387-7.35l-8.845,27.216L-496.821-345.924z"/>
</g>
<rect x="-783.684" y="-169.22" display="none" fill="#F6F6F6" width="600" height="300"/>
<g display="none">
	<path display="inline" fill="#201D1D" d="M-581.97,52.712h8.03V23.884h-8.03V52.712z M-599.515,23.884h-7.99v28.828h21.951v-7.001
		h-13.961V23.884z M-548.612,37.639c2.554-1.112,4.448-3.089,4.448-6.425c0-2.059-0.701-3.583-1.853-4.735
		c-1.69-1.689-4.242-2.595-7.866-2.595h-14.785v28.828h14.867c6.878,0,10.913-3.007,10.913-7.948
		C-542.888,40.769-545.111,38.792-548.612,37.639z M-560.884,30.309h5.189c2.389,0,3.623,0.905,3.623,2.471
		c0,1.771-1.359,2.595-3.789,2.595h-5.023V30.309z M-554.707,46.287h-6.178v-5.313h6.095c2.677,0,3.913,1.029,3.913,2.595
		C-550.876,45.34-552.277,46.287-554.707,46.287z M-400.636,39.121l-11.859-15.237h-7.455v28.828h7.908V36.898l12.313,15.814h7.002
		V23.884h-7.908V39.121z M-442.726,23.678l-12.272,29.034h8.4l2.061-5.147h11.119l2.1,5.147h8.566l-12.273-29.034H-442.726z
		 M-442.191,41.346l3.254-8.196l3.213,8.196H-442.191z M-513.646,33.809c0-2.924-0.865-5.148-2.554-6.836
		c-1.936-1.936-4.983-3.089-9.39-3.089h-13.632v28.828h7.989v-8.73h3.501l5.808,8.73h9.225l-6.878-10.049
		C-515.994,41.14-513.646,38.215-513.646,33.809z M-525.96,37.721h-5.271v-6.918h5.23c2.678,0,4.324,1.152,4.324,3.418
		C-521.677,36.404-523.242,37.721-525.96,37.721z M-371.148,36.28l10.914-12.396h-9.473l-9.924,11.696V23.884h-7.99v28.828h7.99
		v-7.454l2.924-3.254l7.248,10.708h9.596L-371.148,36.28z M-462.083,37.639c2.555-1.112,4.447-3.089,4.447-6.425
		c0-2.059-0.699-3.583-1.852-4.735c-1.689-1.689-4.242-2.595-7.867-2.595h-14.785v28.828h14.867c6.879,0,10.914-3.007,10.914-7.948
		C-456.359,40.769-458.583,38.792-462.083,37.639z M-474.356,30.309h5.189c2.389,0,3.625,0.905,3.625,2.471
		c0,1.771-1.359,2.595-3.789,2.595h-5.024V30.309z M-468.179,46.287h-6.177v-5.313h6.095c2.678,0,3.912,1.029,3.912,2.595
		C-464.349,45.34-465.748,46.287-468.179,46.287z M-501.703,41.346h13.838v-6.302h-13.838v-4.365h15.279v-6.795h-23.186v28.828
		h23.393v-6.795h-15.486V41.346z"/>
	<path display="inline" fill="#FDC400" d="M-472.513-17.171l-2.752-8.471L-497.73-9.323l2.027-6.229l-25.224-18.326l-2.752,8.471
		l18.015,13.088l-2.752,8.472l8.781,6.38l7.205-5.235L-472.513-17.171z M-490.203-32.498l8.582-26.406l2.023,6.231h31.176
		l-2.752-8.471h-22.267l-2.753-8.471h-10.854l-10.362,31.882L-490.203-32.498z M-492.429-18.408l7.205-5.235l-22.463-16.322
		l6.552,0.002l9.634-29.65h-8.906l-6.881,21.177l-8.907,0.001l-3.354,10.322l7.205,5.236L-492.429-18.408z M-465.181-35.731
		l-8.906,0.001l8.578,26.407l-5.299-3.853L-496.031,5.15l7.205,5.236l18.014-13.089l7.207,5.235l8.781-6.38l-2.752-8.472
		L-465.181-35.731z M-443.69-38.114l-3.354-10.322l-8.907-0.001l-24.616-0.002l-2.752,8.472l27.767,0.002l-5.302,3.849l9.635,29.651
		l7.205-5.236l-6.881-21.176L-443.69-38.114z"/>
</g>
<rect x="-175.684" y="-785.22" display="none" fill="#FDC400" width="600" height="300"/>
<g display="none">
	<path display="inline" fill="#201D1D" d="M68.508-602.789h8.03v-28.828h-8.03V-602.789z M50.963-631.617h-7.99v28.828h21.951
		v-7.001H50.963V-631.617z M101.867-617.862c2.554-1.112,4.448-3.089,4.448-6.425c0-2.059-0.701-3.583-1.854-4.735
		c-1.689-1.689-4.242-2.595-7.866-2.595H81.81v28.828h14.867c6.878,0,10.913-3.007,10.913-7.948
		C107.59-614.732,105.368-616.709,101.867-617.862z M89.594-625.192h5.189c2.389,0,3.623,0.905,3.623,2.471
		c0,1.771-1.359,2.595-3.789,2.595h-5.023V-625.192z M95.772-609.214h-6.178v-5.313h6.095c2.677,0,3.913,1.029,3.913,2.595
		C99.602-610.161,98.202-609.214,95.772-609.214z M249.842-616.38l-11.859-15.237h-7.455v28.828h7.908v-15.814l12.313,15.814h7.002
		v-28.828h-7.908V-616.38z M207.752-631.823l-12.271,29.034h8.4l2.061-5.147h11.119l2.1,5.147h8.566l-12.273-29.034H207.752z
		 M208.288-614.155l3.254-8.196l3.213,8.196H208.288z M136.833-621.692c0-2.924-0.865-5.147-2.554-6.836
		c-1.936-1.936-4.983-3.089-9.39-3.089h-13.632v28.828h7.989v-8.73h3.501l5.808,8.73h9.225l-6.878-10.049
		C134.485-614.361,136.833-617.286,136.833-621.692z M124.518-617.78h-5.271v-6.918h5.23c2.678,0,4.324,1.152,4.324,3.418
		C128.801-619.097,127.237-617.78,124.518-617.78z M279.331-619.221l10.914-12.395h-9.473l-9.924,11.696v-11.696h-7.99v28.828h7.99
		v-7.454l2.924-3.254l7.248,10.708h9.596L279.331-619.221z M188.395-617.862c2.555-1.112,4.447-3.089,4.447-6.425
		c0-2.059-0.699-3.583-1.852-4.735c-1.689-1.689-4.242-2.595-7.867-2.595h-14.785v28.828h14.867c6.879,0,10.914-3.007,10.914-7.948
		C194.12-614.732,191.895-616.709,188.395-617.862z M176.123-625.192h5.188c2.389,0,3.625,0.905,3.625,2.471
		c0,1.771-1.359,2.595-3.789,2.595h-5.024V-625.192z M182.299-609.214h-6.177v-5.313h6.095c2.678,0,3.912,1.029,3.912,2.595
		C186.129-610.161,184.731-609.214,182.299-609.214z M148.776-614.155h13.838v-6.302h-13.838v-4.365h15.279v-6.795H140.87v28.828
		h23.393v-6.795h-15.486V-614.155z"/>
	<path display="inline" fill="#201D1D" d="M-1.222-604.864l-2.752-8.471l-22.465,16.318l2.027-6.229l-25.224-18.326l-2.752,8.471
		l18.015,13.088l-2.752,8.472l8.781,6.38l7.205-5.235L-1.222-604.864z M-18.912-620.191l8.582-26.406l2.023,6.232H22.87
		l-2.752-8.471H-2.149l-2.753-8.471h-10.853l-10.362,31.882L-18.912-620.191z M-21.138-606.101l7.205-5.235l-22.463-16.322
		l6.552,0.002l9.634-29.65h-8.906l-6.881,21.177l-8.907,0.001l-3.354,10.322l7.205,5.236L-21.138-606.101z M6.11-623.424
		l-8.906,0.001l8.578,26.407l-5.299-3.852l-25.223,18.325l7.205,5.236l18.014-13.089l7.207,5.235l8.781-6.38l-2.752-8.472
		L6.11-623.424z M27.601-625.807l-3.354-10.322l-8.907-0.001l-24.616-0.002l-2.752,8.472l27.767,0.002l-5.302,3.849l9.635,29.651
		l7.205-5.236l-6.881-21.176L27.601-625.807z"/>
</g>
<rect x="-175.684" y="-477.22" display="none" fill="#201D1D" width="600" height="300"/>
<g display="none">
	<path display="inline" fill="#FDC400" d="M281.286-295.289l-7.458-11.017l-3.48,3.872v7.145h-6.99v-27.828h6.99v12.559
		l10.655-12.559h8.135l-10.44,11.857l10.968,15.971H281.286z M250.993-295.289l-13.057-16.77v16.77h-6.908v-27.828h6.711
		l12.604,16.193v-16.193h6.908v27.828H250.993z M219.497-295.289l-2.1-5.147h-11.794l-2.061,5.147h-7.308l11.849-28.034h7.039
		l11.851,28.034H219.497z M207.551-305.655h7.937l-3.943-10.059L207.551-305.655z M168.838-295.289v-27.828h14.285
		c3.408,0,5.866,0.801,7.514,2.448c1.147,1.147,1.705,2.581,1.705,4.382c0,2.761-1.395,4.768-4.146,5.967l-1.202,0.522l1.245,0.41
		c3.722,1.227,5.381,3.277,5.381,6.65c0,4.664-3.893,7.448-10.414,7.448H168.838z M175.623-300.714h6.677
		c2.752,0,4.33-1.173,4.33-3.218c0-0.931-0.43-3.095-4.412-3.095h-6.595V-300.714z M175.623-311.627h5.524
		c3.545,0,4.289-1.683,4.289-3.095c0-0.893-0.402-2.971-4.125-2.971h-5.688V-311.627z M141.37-295.289v-27.828h22.186v5.795h-15.279
		v5.365h13.838v5.302h-13.838v5.571h15.486v5.795H141.37z M128.824-295.289l-5.809-8.73h-4.269v8.73h-6.989v-27.828h13.132
		c4.044,0,7.083,0.99,9.036,2.942c1.619,1.62,2.407,3.74,2.407,6.482c0,4.961-3.06,7.303-5.626,8.395l-0.563,0.238l6.688,9.77
		H128.824z M118.747-309.28h5.771c2.95,0,4.783-1.532,4.783-4c0-2.49-1.759-3.918-4.824-3.918h-5.73V-309.28z M82.31-295.289
		v-27.828h14.285c3.408,0,5.865,0.801,7.513,2.448c1.148,1.148,1.707,2.582,1.707,4.382c0,2.76-1.396,4.768-4.147,5.967
		l-1.201,0.522l1.244,0.41c3.721,1.226,5.38,3.277,5.38,6.65c0,4.664-3.893,7.448-10.413,7.448H82.31z M89.094-300.714h6.678
		c2.752,0,4.33-1.173,4.33-3.218c0-0.931-0.431-3.095-4.413-3.095h-6.595V-300.714z M89.094-311.627h5.523
		c3.545,0,4.289-1.683,4.289-3.095c0-0.893-0.401-2.971-4.123-2.971h-5.689V-311.627z M69.008-295.289v-27.828h7.03v27.828H69.008z
		 M43.473-295.289v-27.828h6.99v21.827h13.961v6.001H43.473z"/>
	<path display="inline" fill="#FDC400" d="M-23.889-274.544l24.372-17.707l6.25,4.544l-8.841-27.217l7.854-0.001l10.133,31.192
		l-8.193,5.953l-7.207-5.235l-18.014,13.089L-23.889-274.544z M-36.537-283.732l2.752-8.472l-18.015-13.088l2.427-7.471
		l24.373,17.708l-2.392,7.348l23.154-16.819l2.427,7.471l-26.533,19.276L-36.537-283.732z M11.024-315.619l6.254-4.54l-28.618-0.002
		l2.427-7.472l32.797,0.003l3.13,9.631l-7.206,5.236l6.881,21.176l-6.354,4.618L11.024-315.619z M-47.67-317.999l3.129-9.631
		l8.907-0.001l6.881-21.177h7.854l-9.309,28.65l-7.729-0.002l23.152,16.822l-6.354,4.617L-47.67-317.999z M-25.53-317.617
		l10.138-31.19h10.127l2.753,8.471h22.267l2.427,7.471H-7.943l-2.387-7.35L-19.174-313L-25.53-317.617z"/>
</g>
<rect x="-175.684" y="-169.22" display="none" fill="#F6F6F6" width="600" height="300"/>
<g>
	<path fill="#FFFFFF" d="M85.573,38.964h5.684V18.558h-5.684V38.964z M73.154,18.558h-5.656v20.405h15.538v-4.955h-9.882V18.558z
		 M109.185,28.294c1.808-0.787,3.149-2.186,3.149-4.548c0-1.457-0.496-2.536-1.312-3.352c-1.196-1.196-3.003-1.837-5.568-1.837
		H94.988v20.405h10.523c4.868,0,7.725-2.128,7.725-5.626C113.236,30.51,111.663,29.111,109.185,28.294z M100.498,23.106h3.673
		c1.691,0,2.564,0.641,2.564,1.749c0,1.253-0.962,1.837-2.682,1.837h-3.556V23.106z M104.871,34.416h-4.373v-3.76h4.314
		c1.895,0,2.77,0.729,2.77,1.837C107.582,33.745,106.591,34.416,104.871,34.416z M213.926,29.344l-8.394-10.785h-5.277v20.405h5.598
		V27.77l8.715,11.194h4.956V18.558h-5.598V29.344z M184.133,18.412l-8.686,20.551h5.946l1.459-3.643h7.87l1.486,3.643h6.064
		l-8.687-20.551H184.133z M184.512,30.918l2.303-5.802l2.274,5.802H184.512z M133.934,25.583c0-2.07-0.612-3.643-1.808-4.839
		c-1.37-1.37-3.527-2.186-6.646-2.186h-9.649v20.405h5.655v-6.18h2.478l4.111,6.18h6.529l-4.868-7.113
		C132.273,30.772,133.934,28.702,133.934,25.583z M125.218,28.352h-3.731v-4.897h3.702c1.895,0,3.061,0.816,3.061,2.419
		C128.25,27.42,127.142,28.352,125.218,28.352z M234.798,27.332l7.725-8.774h-6.705l-7.024,8.279v-8.279h-5.656v20.405h5.656v-5.276
		l2.07-2.303l5.13,7.579h6.792L234.798,27.332z M170.432,28.294c1.808-0.787,3.148-2.186,3.148-4.548
		c0-1.457-0.495-2.536-1.311-3.352c-1.196-1.196-3.003-1.837-5.569-1.837h-10.465v20.405h10.523c4.869,0,7.725-2.128,7.725-5.626
		C174.484,30.51,172.909,29.111,170.432,28.294z M161.745,23.106h3.673c1.691,0,2.566,0.641,2.566,1.749
		c0,1.253-0.962,1.837-2.682,1.837h-3.556V23.106z M166.117,34.416h-4.372v-3.76h4.314c1.895,0,2.769,0.729,2.769,1.837
		C168.828,33.745,167.838,34.416,166.117,34.416z M142.388,30.918h9.795v-4.461h-9.795v-3.09h10.815v-4.81h-16.411v20.405h16.558
		v-4.81h-10.962V30.918z"/>
	<path fill="#FDC400" d="M36.216,37.495l-1.948-5.996L18.367,43.049l1.435-4.409L1.948,25.669L0,31.665l12.751,9.264l-1.948,5.996
		l6.216,4.516l5.1-3.706L36.216,37.495z M23.695,26.646l6.075-18.691l1.432,4.411h22.067L51.321,6.37H35.56l-1.949-5.996h-7.682
		l-7.335,22.567L23.695,26.646z M22.119,36.619l5.1-3.706l-15.9-11.553l4.637,0.001l6.819-20.987h-6.304l-4.87,14.989l-6.305,0.001
		L2.923,22.67l5.1,3.706L22.119,36.619z M41.406,24.357l-6.304,0.001l6.072,18.692l-3.751-2.727L19.57,53.294l5.1,3.706
		l12.751-9.265l5.101,3.706l6.216-4.516l-1.948-5.996L41.406,24.357z M56.618,22.67l-2.374-7.306l-6.305-0.001l-17.424-0.001
		l-1.948,5.996l19.654,0.001l-3.753,2.724l6.82,20.988l5.1-3.706l-4.87-14.989L56.618,22.67z"/>
</g>
</svg>
