<svg id="Layer_1" data-name="Layer 1" xmlns="http://www.w3.org/2000/svg" viewBox="0 0 194.48 98.08"><defs><style>.cls-1{fill:#f9bc15;}.cls-2{fill:#fff;}</style></defs><title>logo-libre2</title><g id="Canvas"><g id="path38"><path id="path0_fill" data-name="path0 fill" class="cls-1" d="M157.08,87.41,139.8,74.86a31.62,31.62,0,0,0,1.41,8.79l13.83,10Zm4.89,17a31.18,31.18,0,0,0,8.79,1.38l13.82-10.05-5.34-3.88Zm.84-24.49-2,6.29,5.11,3.71-13.37,9.7a1.88,1.88,0,0,0,.24.18,30.54,30.54,0,0,0,5.69,3.28l18.13-13.16Zm27.52-7.76,6.59,20.3a31.27,31.27,0,0,0,4-7.94l-5.28-16.25ZM173.89,84.09,179.24,88l5.11-3.71,5.1,15.7.24-.17a30.75,30.75,0,0,0,4.88-4.39L187.65,74.1Zm-10.54-16h-6.6l-1.95,6-13.36-9.71c0,.09-.07.19-.1.28A30.25,30.25,0,0,0,140,71.1L158.1,84.27Zm33-12.58a31.45,31.45,0,0,0-6.3-6.27H173l2,6.27ZM181.28,74.84,186.63,71l-1.95-6H201.2l-.09-.29a31,31,0,0,0-2.68-6H176ZM161.06,44.65a31.18,31.18,0,0,0-7.92,4.05L147.86,65h6.6ZM174.77,65l-2-6.29h-6.31L171.52,43h-.3a31.11,31.11,0,0,0-6.53.69L157.77,65Z" transform="translate(-73.09 -42.96)"/></g></g><g id="Canvas-2" data-name="Canvas"><g id="path34"><path id="path0_fill-2" data-name="path0 fill" class="cls-2" d="M156.18,132.11h10.87v-5H156.18v-3.42h12V118.4H150V141h18.38V135.7H156.18ZM182.51,136h-4.85v-4.17h4.79c2.1,0,3.07.81,3.07,2C185.52,135.25,184.42,136,182.51,136Zm-4.85-12.54h4.07c1.88,0,2.85.71,2.85,1.94,0,1.39-1.07,2-3,2h-4Zm9.64,5.75a5.23,5.23,0,0,0,3.49-5,5,5,0,0,0-1.45-3.72c-1.33-1.33-3.34-2-6.18-2H171.55V141h11.67c5.4,0,8.57-2.36,8.57-6.24C191.79,131.66,190.05,130.11,187.3,129.2Zm71.41-1.07,8.58-9.73h-7.44l-7.8,9.18V118.4h-6.27V141h6.27v-5.85l2.3-2.56L260,141h7.54Zm-121.58,1.14H133v-5.44h4.11c2.1,0,3.4.91,3.4,2.69S139.27,129.27,137.13,129.27Zm9.67-3.08a7.2,7.2,0,0,0-2-5.36c-1.52-1.53-3.92-2.43-7.38-2.43h-10.7V141H133v-6.86h2.75L140.3,141h7.25l-5.4-7.89A7.17,7.17,0,0,0,146.8,126.19Zm56.12,5.92,2.56-6.43,2.52,6.43Zm-.42-13.87L192.86,141h6.6l1.62-4h8.73l1.65,4h6.73l-9.64-22.8Zm33.05,12.13-9.31-12h-5.85V141h6.21V128.62L236.27,141h5.5V118.4h-6.22Zm-121,5.62h-4.85v-4.17h4.78c2.1,0,3.07.81,3.07,2C117.56,135.25,116.47,136,114.56,136Zm-4.85-12.54h4.07c1.88,0,2.85.71,2.85,1.94,0,1.39-1.07,2-3,2h-3.94Zm9.63,5.75a5.23,5.23,0,0,0,3.5-5,5,5,0,0,0-1.46-3.72c-1.33-1.33-3.33-2-6.18-2H103.59V141h11.68c5.4,0,8.57-2.36,8.57-6.24C123.84,131.66,122.09,130.11,119.34,129.2Zm-40-10.8H73.09V141H90.33v-5.5h-11ZM93.15,141h6.3V118.4h-6.3Z" transform="translate(-73.09 -42.96)"/></g></g></svg>