<svg xmlns="http://www.w3.org/2000/svg" width="190" height="98" viewBox="0 0 190 98">
    <g fill="none" fill-rule="nonzero">
        <path fill="#FFF" d="M81.247 88.58h10.606v-4.831H81.247v-3.346h11.71v-5.208h-17.77V97.29h17.93v-5.208h-11.87v-3.504zm25.694 3.786h-4.733v-4.071h4.67c2.053 0 3 .789 3 1.989 0 1.356-1.073 2.082-2.937 2.082zm-4.733-12.246h3.976c1.831 0 2.779.693 2.779 1.894 0 1.356-1.042 1.988-2.905 1.988h-3.85V80.12zm9.406 5.618c1.958-.852 3.408-2.368 3.408-4.925 0-1.577-.535-2.746-1.418-3.63-1.296-1.294-3.252-1.988-6.03-1.988H96.24V97.29h11.396c5.272 0 8.365-2.305 8.365-6.092 0-3.062-1.705-4.577-4.388-5.461zm69.7-1.042l8.366-9.501h-7.261l-7.607 8.965v-8.965h-6.124V97.29h6.124v-5.713l2.242-2.494 5.555 8.207h7.355l-8.65-12.595zm-118.66 1.105h-4.04v-5.303h4.008c2.053 0 3.314.883 3.314 2.62 0 1.673-1.198 2.683-3.282 2.683zm9.439-2.999c0-2.241-.664-3.946-1.958-5.24-1.484-1.483-3.82-2.367-7.197-2.367H52.489V97.29h6.124V90.6h2.684l4.45 6.691h7.072l-5.272-7.702c2.746-1.168 4.546-3.41 4.546-6.787zm54.768 5.777l2.495-6.282 2.462 6.282h-4.957zm-.41-13.542l-9.406 22.254h6.439l1.58-3.945h8.522l1.61 3.945h6.565l-9.407-22.254h-5.903zm32.26 11.837l-9.089-11.68h-5.714v22.097h6.061V85.17l9.438 12.121h5.367V75.195h-6.062v11.679zm-118.09 5.492h-4.736v-4.071h4.672c2.052 0 2.999.789 2.999 1.989 0 1.356-1.073 2.082-2.936 2.082zM35.884 80.12h3.978c1.83 0 2.777.693 2.777 1.894 0 1.356-1.042 1.988-2.904 1.988h-3.851V80.12zm9.407 5.618c1.958-.852 3.41-2.368 3.41-4.925 0-1.577-.538-2.746-1.421-3.63-1.295-1.294-3.252-1.988-6.03-1.988H29.92V97.29h11.395c5.272 0 8.365-2.305 8.365-6.092 0-3.062-1.704-4.577-4.387-5.461zM6.275 75.195H.151V97.29h16.825v-5.366h-10.7v-16.73zM19.723 97.29h6.155V75.195h-6.155V97.29z"/>
        <path fill="#FCC14A" d="M82.896 43.384L66.037 31.136a30.485 30.485 0 0 0 1.374 8.576l13.493 9.801 1.992-6.129zm4.774 16.59a30.42 30.42 0 0 0 8.58 1.344l13.492-9.802-5.212-3.787-16.86 12.246zm.823-23.898L86.5 42.21l4.983 3.62-13.041 9.473a30.141 30.141 0 0 0 5.785 3.377l17.69-12.85-13.424-9.755zm26.85-7.581l6.44 19.818a30.482 30.482 0 0 0 3.93-7.746l-5.155-15.86-5.214 3.788zm-16.035 11.65l5.218 3.79 4.983-3.62 4.98 15.33a30.102 30.102 0 0 0 5-4.458l-6.756-20.795-13.425 9.752zM89.021 24.532h-6.45l-1.903 5.86-13.039-9.477a30.18 30.18 0 0 0-1.426 6.546l17.69 12.853 5.128-15.782zm32.212-12.27a30.526 30.526 0 0 0-6.152-6.128H98.403l1.991 6.129h20.84zM106.52 31.119l5.217-3.792-1.903-5.858 16.119.001a30.293 30.293 0 0 0-2.694-6.133l-21.867-.002 5.128 15.784zM86.78 1.65a30.521 30.521 0 0 0-7.733 3.955l-5.15 15.863h6.443L86.78 1.65zm13.381 19.818l-1.992-6.134h-6.16L96.992.004C96.896 0 96.797 0 96.701 0c-2.204 0-4.329.232-6.376.67l-6.757 20.798h16.593z"/>
    </g>
</svg>
